<?xml version="1.0" encoding="UTF-8"?>
<svg version="1.1" xmlns="http://www.w3.org/2000/svg" width="1987" height="457">
<path d="M0 0 C4.89730357 7.05521833 8.57306149 15.01414425 12.35546875 22.70703125 C14.44046888 26.881984 16.68958263 30.94706573 19 35 C21.93902349 35.13481759 24.87189559 35.23399416 27.8125 35.3125 C28.64587891 35.35439453 29.47925781 35.39628906 30.33789062 35.43945312 C32.65377896 35.48595691 34.72971943 35.46425121 37 35 C39.05354323 32.86050396 39.05354323 32.86050396 40 30 C40.43699219 29.21882813 40.87398437 28.43765625 41.32421875 27.6328125 C44.3207021 22.12065689 47.29429806 16.59660889 50.25 11.0625 C50.59119873 10.42393066 50.93239746 9.78536133 51.28393555 9.12744141 C52.89520471 6.103657 54.48926706 3.07542063 56 0 C60.52981712 1.70534292 64.80636334 3.82888212 69.125 6 C69.84042969 6.35578125 70.55585938 6.7115625 71.29296875 7.078125 C71.98261719 7.42359375 72.67226563 7.7690625 73.3828125 8.125 C74.31697998 8.59292969 74.31697998 8.59292969 75.27001953 9.0703125 C77 10 77 10 80 12 C78.41714732 16.26152645 76.35575133 20.20308488 74.1875 24.1875 C71.01419143 30.07242675 67.93944686 35.99391868 65 42 C65.61488281 42.45761719 66.22976563 42.91523437 66.86328125 43.38671875 C68.33087307 44.49479082 69.7714872 45.63923225 71.1875 46.8125 C74.79123204 48.33407575 76.68110704 47.67409274 80.328125 46.54296875 C84.95750362 45.60220321 89.64483441 44.71747535 93.95605469 47.06518555 C95.83205167 48.53647136 97.54134909 50.0877378 99.25 51.75 C100.4214635 52.82857212 101.59333099 53.90670562 102.765625 54.984375 C103.31798828 55.50580078 103.87035156 56.02722656 104.43945312 56.56445312 C105.77717305 57.79502152 107.18755289 58.94577565 108.609375 60.078125 C111.27904573 62.22433088 113.60194246 64.55293106 116 67 C117.25468169 68.23493364 118.51134849 69.46785228 119.76953125 70.69921875 C121.11727642 72.02855569 122.46493096 73.35798452 123.8125 74.6875 C124.50537109 75.36361328 125.19824219 76.03972656 125.91210938 76.73632812 C126.56630859 77.38408203 127.22050781 78.03183594 127.89453125 78.69921875 C128.49112549 79.28533936 129.08771973 79.87145996 129.70239258 80.4753418 C131 82 131 82 131 84 C131.99 84.33 132.98 84.66 134 85 C138 89.45714286 138 89.45714286 138 92 C138.5990918 92.25797363 139.19818359 92.51594727 139.81542969 92.78173828 C142.2000802 94.11157803 143.31610819 95.32679478 144.953125 97.4921875 C145.48607178 98.19150391 146.01901855 98.89082031 146.56811523 99.61132812 C147.12313721 100.35833984 147.67815918 101.10535156 148.25 101.875 C149.11443726 103.02258789 149.11443726 103.02258789 149.99633789 104.19335938 C154.57315025 110.31544727 158.8463792 116.58337201 163 123 C164.04147671 124.5001319 165.08313257 126.00013944 166.125 127.5 C168.92145646 131.70220204 171.16106942 136.09154067 173.36328125 140.62890625 C174.54714366 143.06726725 175.74943499 145.48810056 176.98046875 147.90234375 C181.00489005 155.80711852 184.7845103 163.7233063 188 172 C188.34675781 172.88816406 188.69351562 173.77632812 189.05078125 174.69140625 C191.80828894 182.00572202 193.9847472 189.45067408 196 197 C196.33 198.20527344 196.66 199.41054687 197 200.65234375 C198.15986988 205.07024967 199.11159026 209.5202358 200 214 C200.18626953 214.93473145 200.37253906 215.86946289 200.56445312 216.83251953 C207.47289423 253.35943822 207.32543523 295.22672979 197.68920898 331.26855469 C196.73401957 335.05412296 196.07396707 338.87393356 195.4296875 342.72265625 C195 345 195 345 194 348 C188.68234782 347.55095382 184.06063944 346.75573205 179 345 C177.5445725 344.71396223 176.08572335 344.44513174 174.625 344.1875 C163.67493552 342.06918395 153.08065386 338.0777964 142.5625 334.4375 C141.74668457 334.15688721 140.93086914 333.87627441 140.09033203 333.5871582 C134.59047119 331.65890453 129.30332855 329.41049413 124 327 C121.48444597 325.90399152 118.96089511 324.82795519 116.4375 323.75 C115.49680664 323.3478125 115.49680664 323.3478125 114.53710938 322.9375 C113.02498376 322.29109516 111.51252897 321.64546044 110 321 C107.89413296 324.15880056 106.77220527 327.07339111 105.4375 330.625 C102.26449106 338.81120201 98.24364878 346.43884899 94.01806641 354.12255859 C93.15279157 355.71823329 92.32777283 357.33563247 91.51171875 358.95703125 C87.41643343 367.01471652 81.94288699 373.95020576 76.45117188 381.0859375 C73.70819519 384.70386099 71.11948557 388.43196163 68.5234375 392.15625 C68.02070313 392.7646875 67.51796875 393.373125 67 394 C66.34 394 65.68 394 65 394 C64.7421875 394.57234375 64.484375 395.1446875 64.21875 395.734375 C62.88634058 398.21128995 61.34943882 400.1341166 59.5 402.25 C58.8915625 402.95640625 58.283125 403.6628125 57.65625 404.390625 C56 406 56 406 54 406 C53.67 406.99 53.34 407.98 53 409 C51.61032458 410.20017423 50.21790674 411.39983005 48.765625 412.5234375 C46.85030825 414.08077586 46.85030825 414.08077586 44.671875 416.328125 C41.87397647 419.12602353 38.99026108 421.78698216 36 424.375 C35.49210938 424.83777344 34.98421875 425.30054688 34.4609375 425.77734375 C31.86038098 428.01115512 30.62087543 429.04555336 27.125 428.7890625 C26.42375 428.52867187 25.7225 428.26828125 25 428 C25 427.34 25 426.68 25 426 C23.68 425.67 22.36 425.34 21 425 C21 424.34 21 423.68 21 423 C20.12516968 422.60119629 20.12516968 422.60119629 19.23266602 422.19433594 C-2.72855473 410.44646367 -21.58293887 382.34634984 -33.71484375 361.23046875 C-34.5893291 359.71274494 -35.50000839 358.215434 -36.44140625 356.73828125 C-41.20254457 349.21742306 -44.58375807 341.19085183 -48 333 C-48.43957031 331.96230469 -48.87914062 330.92460937 -49.33203125 329.85546875 C-52 323.41651943 -52 323.41651943 -52 320 C-59.42364759 323.30344483 -59.42364759 323.30344483 -66.6875 326.9375 C-85.14953912 336.30120362 -116.0268509 349.08067753 -137 348 C-158.71529324 288.3948781 -151.15451236 213.26331639 -124.96264648 156.17944336 C-111.5710079 127.70905574 -93.56099765 102.50779088 -72.25 79.4375 C-71.65348633 78.78789307 -71.05697266 78.13828613 -70.44238281 77.46899414 C-69.00446122 75.93790494 -67.50742371 74.46271199 -66 73 C-65.34 73 -64.68 73 -64 73 C-63.01 71.02 -63.01 71.02 -62 69 C-61.34 69 -60.68 69 -60 69 C-59.01 67.02 -59.01 67.02 -58 65 C-57.34 65 -56.68 65 -56 65 C-56 64.34 -56 63.68 -56 63 C-54.34516392 61.50122497 -52.62409488 60.07511527 -50.875 58.6875 C-49.87339844 57.88828125 -48.87179688 57.0890625 -47.83984375 56.265625 C-46.43412109 55.14414063 -46.43412109 55.14414063 -45 54 C-43.80872738 52.9835717 -42.62020374 51.96388629 -41.4375 50.9375 C-39 49 -39 49 -37 49 C-36.67 48.01 -36.34 47.02 -36 46 C-26.57978087 45.6525329 -26.57978087 45.6525329 -21.9375 47.3125 C-16.40329747 48.27878933 -13.47632018 46.08783197 -9 43 C-10.11027526 38.55889898 -11.27267806 35.60561205 -14 32 C-15.03700863 30.06100991 -16.03477104 28.10070304 -17 26.125 C-17.7425 24.61292969 -17.7425 24.61292969 -18.5 23.0703125 C-18.995 22.05710937 -19.49 21.04390625 -20 20 C-20.556875 18.94554688 -21.11375 17.89109375 -21.6875 16.8046875 C-23 14 -23 14 -23 11 C-22.23816406 10.62488281 -21.47632813 10.24976563 -20.69140625 9.86328125 C-14.94756526 7.01645869 -9.28260401 4.10964849 -3.7421875 0.8828125 C-2 0 -2 0 0 0 Z M13 63 C15.68064211 65.98162648 18.84817485 67.99718996 22.1875 70.1875 C23.81751953 71.26064453 23.81751953 71.26064453 25.48046875 72.35546875 C26.31191406 72.89816406 27.14335937 73.44085938 28 74 C30.95627264 72.26071781 33.80578785 70.47785076 36.5625 68.4375 C38.95709804 66.70167784 41.28069568 65.1964939 44 64 C44 63.67 44 63.34 44 63 C33.57361601 61.70823561 23.41808214 61.61092238 13 63 Z M-31.75 76.875 C-32.36359375 77.40867187 -32.9771875 77.94234375 -33.609375 78.4921875 C-35.22598789 79.9031686 -35.22598789 79.9031686 -35 82 C-35.5662207 82.24169922 -36.13244141 82.48339844 -36.71582031 82.73242188 C-39.4522274 84.25095817 -41.33069338 86.07151881 -43.546875 88.28125 C-44.39121094 89.12300781 -45.23554688 89.96476562 -46.10546875 90.83203125 C-46.97816406 91.71246094 -47.85085937 92.59289062 -48.75 93.5 C-49.63816406 94.38042969 -50.52632813 95.26085937 -51.44140625 96.16796875 C-52.28058594 97.00972656 -53.11976563 97.85148437 -53.984375 98.71875 C-54.75491211 99.49154297 -55.52544922 100.26433594 -56.31933594 101.06054688 C-58.21829569 102.82418529 -58.21829569 102.82418529 -58 105 C-58.66 105 -59.32 105 -60 105 C-63.22932232 108.46827852 -66.08720469 112.263873 -69 116 C-69.73992187 116.94875 -70.47984375 117.8975 -71.2421875 118.875 C-88.11187982 140.96769314 -101.22817378 164.57170043 -110 191 C-110.35940674 192.03664795 -110.35940674 192.03664795 -110.72607422 193.09423828 C-121.61923053 224.53035394 -123.29795695 257.40449401 -121.1875 290.375 C-121.11756836 291.54015137 -121.04763672 292.70530273 -120.97558594 293.90576172 C-120.43008153 301.5395635 -119.10657045 308.64332369 -117 316 C-110.14356354 314.79571214 -103.67880211 313.08885564 -97.125 310.75 C-96.25657471 310.44352539 -95.38814941 310.13705078 -94.4934082 309.82128906 C-88.55698072 307.67906833 -82.98117401 305.23107823 -77.40234375 302.2734375 C-75.37483107 301.19869094 -73.36765783 300.25224801 -71.25 299.375 C-67.4035124 297.74763986 -63.72213412 295.89371736 -60 294 C-59.85653181 289.45086283 -60.21266299 285.39714441 -61.06811523 280.90234375 C-67.54937 245.78852483 -62.36905808 206.90845066 -49 174 C-48.48173313 172.68751489 -47.96350766 171.37501343 -47.4453125 170.0625 C-40.75192383 153.29487839 -32.69497781 137.07029562 -22.4453125 122.171875 C-20.24240343 118.86155758 -18.27602214 115.41629663 -16.296875 111.96875 C-15 110 -15 110 -13 109 C-12.72905518 109.97888184 -12.72905518 109.97888184 -12.45263672 110.97753906 C-4.51483596 140.42153106 -4.51483596 140.42153106 6 169 C6.47179687 170.12921875 6.94359375 171.2584375 7.4296875 172.421875 C9.1444993 176.32925712 11.01072203 180.13165475 12.9375 183.9375 C13.61328125 185.27994792 14.2890625 186.62239583 14.96484375 187.96484375 C15.46878662 188.96040283 15.46878662 188.96040283 15.98291016 189.97607422 C16.66751017 191.33837238 17.34414105 192.70470136 18.01318359 194.07470703 C20.04173084 198.2154631 22.23265523 202.1271619 24.75 206 C25.36359375 206.94875 25.9771875 207.8975 26.609375 208.875 C27.06828125 209.57625 27.5271875 210.2775 28 211 C31.01304104 207.40517258 32.73227358 204.54268633 34 200 C34.66 200 35.32 200 36 200 C37.73101137 196.39671657 39.45945825 192.79220841 41.1875 189.1875 C41.67025391 188.18267578 42.15300781 187.17785156 42.65039062 186.14257812 C44.10859704 183.09893924 45.55649454 180.05063617 47 177 C47.44093994 176.07566162 47.88187988 175.15132324 48.33618164 174.19897461 C51.39226558 167.66428774 53.83556703 161.04561131 56.0625 154.1875 C56.40756592 153.13941162 56.75263184 152.09132324 57.1081543 151.01147461 C59.29377609 144.32230391 61.33852063 137.61516485 63.19921875 130.828125 C63.9204635 128.28089966 64.7399357 125.80637575 65.625 123.3125 C67.34660238 118.32643847 68.17416215 113.19792061 69 108 C71.93630572 110.61004953 73.73528014 113.64750616 75.75 117 C76.46010946 118.17498 77.17106119 119.34945133 77.8828125 120.5234375 C78.23762695 121.10963867 78.59244141 121.69583984 78.95800781 122.29980469 C80.47132375 124.7690484 82.04944111 127.19513806 83.625 129.625 C87.02224111 134.94811475 90.07411123 140.40570067 93 146 C93.74056641 147.40185547 93.74056641 147.40185547 94.49609375 148.83203125 C99.84632565 159.21287081 103.94844206 170.06079356 108 181 C108.350625 181.825 108.70125 182.65 109.0625 183.5 C111.65603762 190.41610031 112.92693381 197.93239143 114.5625 205.125 C114.89411133 206.56939453 114.89411133 206.56939453 115.23242188 208.04296875 C121.42253264 235.23457312 120.83133426 265.60680383 116 293 C126.91911387 299.76055774 137.89905203 304.90731295 149.96289062 309.25927734 C151.9346326 309.97623146 153.89751601 310.71352097 155.859375 311.45703125 C157.06078125 311.90433594 158.2621875 312.35164062 159.5 312.8125 C161.09328125 313.40998047 161.09328125 313.40998047 162.71875 314.01953125 C166.51599463 315.15418411 170.06081582 315.60179986 174 316 C174.48281587 312.70885815 174.96055959 309.416998 175.4375 306.125 C175.63956055 304.74828125 175.63956055 304.74828125 175.84570312 303.34375 C176.24693628 300.56447642 176.62946165 297.78352598 177 295 C177.10296387 294.23792236 177.20592773 293.47584473 177.31201172 292.69067383 C178.30118597 284.30773505 178.24373825 275.86688283 178.25 267.4375 C178.25067474 266.61975098 178.25134949 265.80200195 178.25204468 264.95947266 C178.20768725 230.96593166 171.70478755 197.82406369 157 167 C156.65340332 166.27329102 156.30680664 165.54658203 155.94970703 164.79785156 C152.00486728 156.64005701 147.89909379 148.63318401 143 141 C142.40703125 140.07058594 141.8140625 139.14117187 141.203125 138.18359375 C136.85285475 131.51027919 132.15932792 125.18774835 127.2578125 118.91796875 C125.4999188 116.64608883 123.8175394 114.36304454 122.1875 112 C120.00229173 109.00314295 117.65084509 106.58619033 115 104 C114.01231119 102.84053922 113.03358877 101.67339894 112.0625 100.5 C109.33155599 97.2578793 106.26369722 94.70817429 103 92 C101.79535871 90.54175001 100.59128414 89.08282808 99.41015625 87.60546875 C97.15729376 85.04057545 94.58752866 82.87978493 91.98046875 80.68359375 C90.74149715 79.63034571 89.52972889 78.54319727 88.36328125 77.41015625 C86.73179688 75.79366642 86.73179688 75.79366642 84 74 C78.81152784 74.27862623 74.71643522 76.34948097 70.1875 78.6875 C69.48262451 79.04545654 68.77774902 79.40341309 68.05151367 79.7722168 C63.46846219 82.1373055 59.10330723 84.68420729 54.89453125 87.67578125 C53 89 53 89 50.703125 90.35546875 C47.3252809 92.41048662 44.14306347 94.68845901 40.9375 97 C40.32583984 97.43828125 39.71417969 97.8765625 39.08398438 98.328125 C38.48779297 98.75609375 37.89160156 99.1840625 37.27734375 99.625 C36.41858643 100.23601562 36.41858643 100.23601562 35.54248047 100.859375 C33.86017822 102.06877808 33.86017822 102.06877808 31.87890625 103.875 C30 105 30 105 27.58984375 104.9375 C24.37902677 103.77521331 22.23115031 102.13195919 19.5625 100 C10.30962177 92.7889051 0.41111102 86.41511894 -10 81 C-11.16144531 80.38769531 -12.32289063 79.77539062 -13.51953125 79.14453125 C-14.78318147 78.49088538 -16.0475064 77.83854223 -17.3125 77.1875 C-18.48425781 76.58292969 -19.65601563 75.97835937 -20.86328125 75.35546875 C-25.60544235 73.30624098 -28.00529594 73.53037116 -31.75 76.875 Z M-21 173 C-25.84428083 182.42220944 -28.88192265 191.75370036 -31.47705078 201.97998047 C-31.91009425 203.652717 -32.38519558 205.31450152 -32.87109375 206.97265625 C-39.29311082 229.56617744 -40.08207654 254.92897813 -36 278 C-30.51061335 275.1333203 -25.50979359 272.27852212 -21 268 C-21 267.34 -21 266.68 -21 266 C-20.18982422 265.66548828 -20.18982422 265.66548828 -19.36328125 265.32421875 C-16.24081198 263.57460374 -13.77860711 261.24765896 -11.1875 258.8125 C-10.65487549 258.31709717 -10.12225098 257.82169434 -9.57348633 257.3112793 C2.91639403 246.66507914 2.91639403 246.66507914 11 233 C10.2861471 230.68249536 10.2861471 230.68249536 8.78125 228.5234375 C8.26385254 227.69328125 7.74645508 226.863125 7.21337891 226.0078125 C6.64796387 225.13898438 6.08254883 224.27015625 5.5 223.375 C4.37099717 221.57118716 3.24337878 219.76650703 2.1171875 217.9609375 C1.57288086 217.09952148 1.02857422 216.23810547 0.46777344 215.35058594 C-2.23962915 211.01477887 -4.64675931 206.53481641 -7 202 C-7.47566406 201.10023438 -7.95132813 200.20046875 -8.44140625 199.2734375 C-12.84619291 190.73988214 -16.43315746 181.90655356 -20 173 C-20.33 173 -20.66 173 -21 173 Z M76 174 C75.73896484 174.61818604 75.47792969 175.23637207 75.20898438 175.87329102 C69.9747722 188.21975253 64.62776542 200.33568633 58 212 C57.39285156 213.07636719 56.78570312 214.15273437 56.16015625 215.26171875 C53.01411043 220.74836759 49.7408468 225.95636038 45.87109375 230.96484375 C44.70249045 233.08886219 44.70249045 233.08886219 45.84765625 235.75390625 C46.22792969 236.49511719 46.60820312 237.23632812 47 238 C47.66 238 48.32 238 49 238 C49.26296875 238.57878906 49.5259375 239.15757812 49.796875 239.75390625 C52.48478657 244.77192297 56.69887656 249.08180792 61.125 252.625 C64 255 64 255 66.25 257.8125 C72.76717282 265.92275951 82.68129382 271.82529025 91 278 C96.51479308 272.48520692 94.2881241 259.61507828 94.3125 252.0625 C94.31545074 251.26331146 94.31840149 250.46412292 94.32144165 249.64071655 C94.33503487 233.42725029 93.1026683 217.54523966 87.71240234 202.13769531 C87.03406405 200.10221548 86.49271959 198.0824369 85.99609375 195.99609375 C84.93834625 191.59372465 83.54268192 187.33899537 82.0625 183.0625 C81.81048828 182.29615234 81.55847656 181.52980469 81.29882812 180.74023438 C80.62430928 178.79258279 79.82099234 176.89058032 79 175 C78.01 174.67 77.02 174.34 76 174 Z M28 255 C26.64508116 256.49932062 25.29111322 257.99950054 23.9375 259.5 C23.10992187 260.41652344 22.28234375 261.33304687 21.4296875 262.27734375 C19.43603917 264.51138376 17.49397512 266.77522683 15.5625 269.0625 C7.33110497 278.4860281 -2.89374139 286.86054095 -13.1875 293.9375 C-14.5796875 294.9584375 -14.5796875 294.9584375 -16 296 C-16 296.66 -16 297.32 -16 298 C-16.56203125 298.09152344 -17.1240625 298.18304688 -17.703125 298.27734375 C-20.59435721 299.18700014 -22.39919018 300.6611097 -24.75 302.5625 C-25.54921875 303.20316406 -26.3484375 303.84382813 -27.171875 304.50390625 C-27.77515625 304.99761719 -28.3784375 305.49132812 -29 306 C-26.22505764 318.47402659 -21.07531361 330.34556897 -14.1640625 341.08203125 C-13 343 -13 343 -12 346 C-11.34 346 -10.68 346 -10 346 C-9.7525 346.86625 -9.505 347.7325 -9.25 348.625 C-7.92199976 352.21060064 -6.31369152 354.96327987 -4 358 C-3.34 358 -2.68 358 -2 358 C-1.7834375 358.67417969 -1.566875 359.34835937 -1.34375 360.04296875 C0.42128661 363.92707548 2.85157661 366.98999469 5.5 370.3125 C5.99886719 370.95767578 6.49773437 371.60285156 7.01171875 372.26757812 C8.28996405 373.88680307 9.63989809 375.44889612 11 377 C11.66 377 12.32 377 13 377 C13.26731934 377.59329102 13.53463867 378.18658203 13.81005859 378.79785156 C15.01584993 381.02933245 16.2358095 382.4664799 18.0390625 384.234375 C18.61914062 384.80800781 19.19921875 385.38164062 19.796875 385.97265625 C20.70179688 386.85244141 20.70179688 386.85244141 21.625 387.75 C22.54152344 388.65298828 22.54152344 388.65298828 23.4765625 389.57421875 C24.97988624 391.05405305 26.48934856 392.52764676 28 394 C28.33 393.34 28.66 392.68 29 392 C30.33333333 391.33333333 31.66666667 390.66666667 33 390 C34.7511573 388.5833253 34.7511573 388.5833253 36 387 C36 386.34 36 385.68 36 385 C36.57363281 384.77183594 37.14726562 384.54367187 37.73828125 384.30859375 C40.61183183 382.64600403 42.13447159 380.66898597 44.1875 378.0625 C44.97382813 377.0725 45.76015625 376.0825 46.5703125 375.0625 C47.37210937 374.051875 48.17390625 373.04125 49 372 C50.51975583 370.18659643 52.04056577 368.37407569 53.5625 366.5625 C67.44630091 349.55063302 81.33426388 327.81091103 86 306 C83.87885041 304.49428254 81.75346385 302.99531321 79.625 301.5 C79.02171875 301.07074219 78.4184375 300.64148438 77.796875 300.19921875 C74.69602071 297.79745513 74.69602071 297.79745513 71 297 C70.67 296.01 70.34 295.02 70 294 C67.55956836 291.9035708 67.55956836 291.9035708 64.625 289.875 C63.15933594 288.81925781 63.15933594 288.81925781 61.6640625 287.7421875 C59.06220134 285.87930616 59.06220134 285.87930616 56 285 C55.505 283.515 55.505 283.515 55 282 C53.24602045 280.14643529 53.24602045 280.14643529 51.125 278.375 C50.42632812 277.76398438 49.72765625 277.15296875 49.0078125 276.5234375 C46.97863656 274.8142588 46.97863656 274.8142588 44 274 C43.505 272.515 43.505 272.515 43 271 C41.35697047 269.31002677 39.68528688 267.64783606 38 266 C36.41876394 264.17072691 34.86954602 262.31923791 33.33203125 260.453125 C32.0420309 258.87220817 32.0420309 258.87220817 30 258 C29.34 257.01 28.68 256.02 28 255 Z " fill="#00F39D" transform="translate(228,19)"/>
<path d="M0 0 C3.11626076 2.55227492 6.09521268 5.21025376 9 8 C9.74378906 8.67675781 10.48757813 9.35351562 11.25390625 10.05078125 C13 12 13 12 13 15 C13.66 15 14.32 15 15 15 C21.81028277 24.42816305 27 36.24149827 27 48 C15.45 48 3.9 48 -8 48 C-8.99 45.36 -9.98 42.72 -11 40 C-12.82053354 36.85251385 -12.82053354 36.85251385 -15 34 C-15.680625 33.030625 -16.36125 32.06125 -17.0625 31.0625 C-23.69949188 23.27837372 -34.66232186 18.09107805 -44.73828125 17.12109375 C-59.25342346 16.34394451 -72.29547867 16.92466873 -84.11328125 26.2734375 C-86.85976536 28.78678321 -89.2221806 31.5642894 -91.5546875 34.4609375 C-92.03164062 34.96882813 -92.50859375 35.47671875 -93 36 C-93.66 36 -94.32 36 -95 36 C-95.18755859 36.85271484 -95.18755859 36.85271484 -95.37890625 37.72265625 C-96.02768337 40.10150569 -96.90901626 42.1981222 -97.9375 44.4375 C-106.62717559 63.43584016 -106.23452379 85.65298153 -99.3125 105.25 C-94.02159651 117.26933547 -84.65195179 127.37462087 -72.3359375 132.2578125 C-57.86864769 136.85444304 -42.37454931 136.2289502 -28.625 129.625 C-27.06974307 128.77439022 -25.52667587 127.9009006 -24 127 C-23.35289063 126.63132812 -22.70578125 126.26265625 -22.0390625 125.8828125 C-13.96003838 120.76727321 -10.77161841 112.48614143 -7 104 C4.55 104 16.1 104 28 104 C23.38572058 122.45711768 18.269871 135.6550561 3.56640625 147.625 C1.87527458 148.93514769 1.87527458 148.93514769 1 151 C-0.63495707 152.05104383 -2.30788535 153.04369158 -4 154 C-5.24136719 154.72509766 -5.24136719 154.72509766 -6.5078125 155.46484375 C-12.81443184 159.01349373 -19.08430871 161.8606763 -26 164 C-27.09429321 164.37729248 -27.09429321 164.37729248 -28.21069336 164.76220703 C-36.61584676 167.4146368 -44.84419909 167.55218466 -53.5625 167.5 C-54.3143457 167.49890228 -55.06619141 167.49780457 -55.84082031 167.49667358 C-71.52095363 167.43090822 -85.33334858 165.18903562 -99 157 C-99.969375 156.4225 -100.93875 155.845 -101.9375 155.25 C-102.948125 154.5075 -103.95875 153.765 -105 153 C-106.21623047 152.11248047 -106.21623047 152.11248047 -107.45703125 151.20703125 C-119.92598679 141.63296609 -127.06852323 130.28946677 -133 116 C-133.34804687 115.18015625 -133.69609375 114.3603125 -134.0546875 113.515625 C-143.06089843 89.54868351 -142.24413927 57.54298638 -131.9375 34.1796875 C-131.29586806 32.78451845 -130.65026009 31.39116858 -130 30 C-129.69143066 29.31421875 -129.38286133 28.6284375 -129.06494141 27.921875 C-126.27702224 21.77475545 -122.36125772 16.13533377 -118 11 C-117.34 11 -116.68 11 -116 11 C-115.34 9.68 -114.68 8.36 -114 7 C-113.34 7 -112.68 7 -112 7 C-111.76667969 6.4121875 -111.53335937 5.824375 -111.29296875 5.21875 C-106.06005483 -3.76099353 -90.56204 -9.93535233 -80.93261719 -12.56445312 C-53.05125235 -19.59737542 -23.76569959 -17.29061377 0 0 Z " fill="#E5E5E5" transform="translate(1428,177)"/>
<path d="M0 0 C1.48209961 0.0009668 1.48209961 0.0009668 2.99414062 0.00195312 C10.26448726 0.04649575 10.26448726 0.04649575 13.6875 1.1875 C13.6875 10.4275 13.6875 19.6675 13.6875 29.1875 C4.4375 29.4375 4.4375 29.4375 1.54199219 29.48535156 C-3.42191504 29.68301407 -3.42191504 29.68301407 -7.796875 31.859375 C-13.45505613 40.55080787 -11.78850107 49.70752143 -12.3125 60.1875 C2.5375 60.1875 17.3875 60.1875 32.6875 60.1875 C32.6875 40.3875 32.6875 20.5875 32.6875 0.1875 C42.9175 0.1875 53.1475 0.1875 63.6875 0.1875 C63.6875 59.5875 63.6875 118.9875 63.6875 180.1875 C53.4575 180.1875 43.2275 180.1875 32.6875 180.1875 C32.6875 149.4975 32.6875 118.8075 32.6875 87.1875 C17.8375 87.1875 2.9875 87.1875 -12.3125 87.1875 C-12.3125 117.8775 -12.3125 148.5675 -12.3125 180.1875 C-22.5425 180.1875 -32.7725 180.1875 -43.3125 180.1875 C-43.3125 149.4975 -43.3125 118.8075 -43.3125 87.1875 C-48.9225 87.1875 -54.5325 87.1875 -60.3125 87.1875 C-60.3125 78.2775 -60.3125 69.3675 -60.3125 60.1875 C-54.7025 60.1875 -49.0925 60.1875 -43.3125 60.1875 C-43.33570313 58.82238281 -43.35890625 57.45726562 -43.3828125 56.05078125 C-43.70849435 29.0586646 -43.70849435 29.0586646 -37.3125 17.1875 C-36.57 15.7953125 -36.57 15.7953125 -35.8125 14.375 C-34.17036617 11.9802215 -32.53366885 10.06161122 -30.3125 8.1875 C-29.3225 8.1875 -28.3325 8.1875 -27.3125 8.1875 C-27.3125 7.5275 -27.3125 6.8675 -27.3125 6.1875 C-26.1575 5.56875 -25.0025 4.95 -23.8125 4.3125 C-23.1628125 3.96445313 -22.513125 3.61640625 -21.84375 3.2578125 C-14.55343273 0.17517835 -7.80920919 -0.09871921 0 0 Z " fill="#E5E5E5" transform="translate(1019.3125,160.8125)"/>
<path d="M0 0 C36.63 0 73.26 0 111 0 C111 9.57 111 19.14 111 29 C85.26 29 59.52 29 33 29 C33 44.18 33 59.36 33 75 C54.45 75 75.9 75 98 75 C98 84.9 98 94.8 98 105 C76.55 105 55.1 105 33 105 C33 128.43 33 151.86 33 176 C22.11 176 11.22 176 0 176 C0 117.92 0 59.84 0 0 Z " fill="#E5E5E5" transform="translate(556,165)"/>
<path d="M0 0 C0.92232422 -0.0095874 1.84464844 -0.0191748 2.79492188 -0.02905273 C18.03603411 0.04563197 31.39909317 4.81602864 42.5 15.5 C44.9375 18.25 44.9375 18.25 44.9375 20.25 C45.5975 20.25 46.2575 20.25 46.9375 20.25 C56.3129897 32.35777527 58.13256018 46.46444194 58 61.25 C57.99548828 62.21550781 57.99097656 63.18101562 57.98632812 64.17578125 C57.97465417 66.53392089 57.95828021 68.89192602 57.9375 71.25 C48.91675982 71.42180652 39.89592663 71.58827906 30.875 71.75 C30.21265602 71.76187725 29.55031204 71.7737545 28.86789703 71.78599167 C8.88893001 72.14265973 -11.08017361 72.41470343 -31.0625 72.25 C-30.32489971 74.48396153 -29.57307832 76.71136287 -28.8125 78.9375 C-28.18601562 80.79955078 -28.18601562 80.79955078 -27.546875 82.69921875 C-26.10548379 86.14717826 -24.450584 88.41797731 -22.0625 91.25 C-22.0625 91.91 -22.0625 92.57 -22.0625 93.25 C-19.25725155 94.67175092 -16.43009801 96.02109884 -13.5625 97.3125 C-12.8096875 97.65410156 -12.056875 97.99570312 -11.28125 98.34765625 C-2.12196364 102.07264771 8.17942388 100.98031445 17.26953125 97.58203125 C23.93976133 94.25179925 26.64282091 89.83935819 29.9375 83.25 C39.5075 83.25 49.0775 83.25 58.9375 83.25 C57.48944824 93.38636235 54.21911135 101.12673441 47.9375 109.25 C46.4525 109.745 46.4525 109.745 44.9375 110.25 C44.66550781 110.848125 44.39351562 111.44625 44.11328125 112.0625 C42.42131814 115.21033834 40.14549252 116.37999737 37.125 118.25 C36.08730469 118.91 35.04960938 119.57 33.98046875 120.25 C24.15888801 125.49917442 14.0522549 126.92991401 3.05395508 126.82641602 C1.00372144 126.81252521 -1.04194311 126.84680083 -3.09179688 126.88476562 C-15.62173654 126.95694183 -26.89469666 123.77417447 -37.0625 116.25 C-37.0625 115.59 -37.0625 114.93 -37.0625 114.25 C-37.65160156 114.15976562 -38.24070312 114.06953125 -38.84765625 113.9765625 C-43.05012792 112.59797391 -45.38261463 108.61192827 -48.0625 105.25 C-48.53171875 104.66605469 -49.0009375 104.08210938 -49.484375 103.48046875 C-60.41716091 89.0721367 -63.135704 69.49224749 -60.74902344 51.9453125 C-58.05374021 36.00798556 -51.09087655 21.43020551 -38.484375 10.94921875 C-26.2910943 2.39425568 -14.65981945 0.13515282 0 0 Z M-18.0625 30.25 C-18.97 30.8275 -19.8775 31.405 -20.8125 32 C-26.78915897 37.97665897 -28.17453478 42.75415651 -30.0625 51.25 C-10.9225 51.25 8.2175 51.25 27.9375 51.25 C25.58786505 40.67664274 23.56640138 35.49121939 14.9375 29.25 C9.91950687 26.14086881 5.86564535 25.73824945 0.125 25.8125 C-0.67381592 25.81862305 -1.47263184 25.82474609 -2.2956543 25.83105469 C-8.26768298 25.98954478 -13.01844226 26.87949274 -18.0625 30.25 Z " fill="#E5E5E5" transform="translate(891.0625,217.75)"/>
<path d="M0 0 C0.93392578 -0.01224609 1.86785156 -0.02449219 2.83007812 -0.03710938 C17.86529075 -0.068411 30.65335738 4.44723111 41.875 14.625 C42.638125 15.470625 43.40125 16.31625 44.1875 17.1875 C44.67992187 17.71085937 45.17234375 18.23421875 45.6796875 18.7734375 C49.45083185 22.91982009 52.05695444 27.01080252 54.1875 32.1875 C54.56132813 33.00734375 54.93515625 33.8271875 55.3203125 34.671875 C58.42038502 42.69304166 58.40304352 50.14783059 58.296875 58.6640625 C58.28897949 59.86973877 58.28108398 61.07541504 58.27294922 62.31762695 C58.25244651 65.27441088 58.22373951 68.23087407 58.1875 71.1875 C49.16675982 71.35930652 40.14592663 71.52577906 31.125 71.6875 C30.46265602 71.69937725 29.80031204 71.7112545 29.11789703 71.72349167 C9.13893001 72.08015973 -10.83017361 72.35220343 -30.8125 72.1875 C-30.07489971 74.42146153 -29.32307832 76.64886287 -28.5625 78.875 C-27.93601562 80.73705078 -27.93601562 80.73705078 -27.296875 82.63671875 C-25.85548379 86.08467826 -24.200584 88.35547731 -21.8125 91.1875 C-21.8125 91.8475 -21.8125 92.5075 -21.8125 93.1875 C-19.00725155 94.60925092 -16.18009801 95.95859884 -13.3125 97.25 C-12.5596875 97.59160156 -11.806875 97.93320312 -11.03125 98.28515625 C-1.59968738 102.12087978 8.36531145 100.63065176 17.7265625 97.35546875 C20.12766281 96.21589892 21.389543 95.08897573 23.1875 93.1875 C23.8475 93.1875 24.5075 93.1875 25.1875 93.1875 C25.5896875 92.383125 25.5896875 92.383125 26 91.5625 C27.39583333 88.77083333 28.79166667 85.97916667 30.1875 83.1875 C39.7575 83.1875 49.3275 83.1875 59.1875 83.1875 C57.77409907 95.90810834 52.64367211 105.76793349 42.875 114.25 C40.1875 116.1875 40.1875 116.1875 38.1875 116.1875 C38.1875 116.8475 38.1875 117.5075 38.1875 118.1875 C26.99032393 124.33496921 16.0551535 126.88390943 3.30395508 126.76391602 C1.25372144 126.75002521 -0.79194311 126.78430083 -2.84179688 126.82226562 C-15.37173654 126.89444183 -26.64469666 123.71167447 -36.8125 116.1875 C-36.8125 115.5275 -36.8125 114.8675 -36.8125 114.1875 C-37.369375 113.960625 -37.92625 113.73375 -38.5 113.5 C-49.54919164 107.22883717 -55.70171301 93.73683259 -58.94824219 82.09716797 C-60.4450013 75.89197491 -60.44993795 69.66666523 -60.375 63.3125 C-60.36476807 61.99983154 -60.35453613 60.68716309 -60.34399414 59.3347168 C-59.95612912 41.60170383 -54.47723036 27.4097049 -42.09375 14.37890625 C-29.99579996 3.3156493 -15.94981495 0.0108724 0 0 Z M-21.625 33.375 C-25.86469525 38.82603675 -28.46055369 44.42776844 -29.8125 51.1875 C-10.6725 51.1875 8.4675 51.1875 28.1875 51.1875 C25.33170369 37.7985561 25.33170369 37.7985561 16.0625 29.875 C3.57921908 22.81842725 -10.48373475 24.70957147 -21.625 33.375 Z " fill="#E5E5E5" transform="translate(1648.8125,217.8125)"/>
<path d="M0 0 C10.89 0 21.78 0 33 0 C41.77734375 25.078125 41.77734375 25.078125 42.64038086 27.54418945 C43.21781497 29.19383721 43.79545473 30.84341299 44.37329102 32.49291992 C45.83697414 36.67201852 47.29706969 40.85230609 48.75 45.03515625 C49.33313717 46.71100577 49.91646961 48.38678736 50.5 50.0625 C50.92551147 51.28646484 50.92551147 51.28646484 51.35961914 52.53515625 C52.85821022 56.8219322 54.39705921 61.08943184 55.99609375 65.33984375 C56.48335937 66.6381311 56.48335937 66.6381311 56.98046875 67.96264648 C57.60338514 69.61416945 58.23200269 71.26355699 58.8671875 72.91040039 C59.14691406 73.65153076 59.42664062 74.39266113 59.71484375 75.15625 C59.96355225 75.80400391 60.21226074 76.45175781 60.46850586 77.11914062 C61 79 61 79 61 83 C61.66 83 62.32 83 63 83 C63.09796875 82.19691406 63.1959375 81.39382813 63.296875 80.56640625 C64.16771544 76.14931002 65.65420243 72.13738723 67.25 67.9375 C67.56646484 67.0911499 67.88292969 66.2447998 68.20898438 65.37280273 C69.93984356 60.75644682 71.71019723 56.15632712 73.5 51.5625 C75.63686598 46.06569343 77.57481351 40.51081455 79.5 34.9375 C81.75266231 28.42253636 84.14128803 22.0249159 86.87109375 15.69140625 C88.4594309 11.90467857 89.83440436 8.05024996 91.203125 4.1796875 C92 2 92 2 93 0 C103.89 0 114.78 0 126 0 C124.63410382 4.09768853 123.22802839 8.07049714 121.64453125 12.078125 C121.19029785 13.23054687 120.73606445 14.38296875 120.26806641 15.5703125 C119.78772949 16.78460938 119.30739258 17.99890625 118.8125 19.25 C117.81575846 21.77578636 116.82000218 24.30196078 115.82421875 26.828125 C115.34001465 28.05595703 114.85581055 29.28378906 114.35693359 30.54882812 C112.59650182 35.0262415 110.85919138 39.51237779 109.125 44 C106.52435242 50.71335242 103.80684617 57.369875 101 64 C97.53028002 72.25321742 94.16355323 80.54404258 90.85205078 88.86181641 C89.61562299 91.96457704 88.37467238 95.06552298 87.13378906 98.16650391 C86.4571309 99.85749427 85.78070134 101.54857613 85.10449219 103.23974609 C83.39136172 107.52419609 81.67626488 111.80783883 79.95703125 116.08984375 C79.62300293 116.92281982 79.28897461 117.7557959 78.94482422 118.61401367 C78.27439944 120.28520098 77.60285344 121.95593894 76.93017578 123.6262207 C75.31283984 127.65608936 73.73004471 131.69323811 72.22265625 135.765625 C66.62503521 150.81367254 59.98910787 167.97808024 44.5625 175.1875 C38.16453138 178.06029092 31.76728192 178.18195958 24.875 178.1875 C24.09640625 178.19974609 23.3178125 178.21199219 22.515625 178.22460938 C15.64333006 178.24139837 10.0237977 177.17063295 3 176 C3 167.09 3 158.18 3 149 C14 148.625 14 148.625 17.41796875 148.52197266 C29.28141405 148.17321104 29.28141405 148.17321104 39 142 C40.54349576 139.44872596 41.72321558 136.80925547 42.875 134.0625 C43.35453125 133.00772461 43.35453125 133.00772461 43.84375 131.93164062 C45.59277889 127.87465404 46.50017583 125.32483121 45 121 C44.59265625 119.75089844 44.1853125 118.50179687 43.765625 117.21484375 C43.26506826 115.78742279 42.75963221 114.36170597 42.25 112.9375 C41.98123047 112.18235107 41.71246094 111.42720215 41.43554688 110.64916992 C38.73089948 103.12746879 35.65396092 95.79487481 32.4609375 88.46875 C31.93757813 87.2621875 31.41421875 86.055625 30.875 84.8125 C30.39804688 83.72582031 29.92109375 82.63914062 29.4296875 81.51953125 C28.41468553 79.02085154 27.52070821 76.60349301 26.6953125 74.046875 C24.41985862 67.07230654 21.66745454 60.26904047 19 53.4375 C17.93672252 50.70733354 16.87461764 47.97671159 15.8125 45.24609375 C15.43388573 44.27403992 15.43388573 44.27403992 15.04762268 43.28234863 C13.7693824 39.99676044 12.50593929 36.70681507 11.27734375 33.40234375 C10.10418046 30.27749596 8.86123888 27.19939171 7.5625 24.125 C7.13582031 23.10148437 6.70914062 22.07796875 6.26953125 21.0234375 C5.465032 19.10749159 4.65106213 17.19547216 3.82421875 15.2890625 C3.46972656 14.45117188 3.11523438 13.61328125 2.75 12.75 C2.43546875 12.02296875 2.1209375 11.2959375 1.796875 10.546875 C1 8 1 8 0 0 Z " fill="#E5E5E5" transform="translate(1099,221)"/>
<path d="M0 0 C0.99 0.928125 0.99 0.928125 2 1.875 C2 2.535 2 3.195 2 3.875 C2.58523438 4.07222656 3.17046875 4.26945313 3.7734375 4.47265625 C6.97967367 6.49202254 7.94877528 8.94158994 9.625 12.3125 C10.21539063 13.46621094 10.80578125 14.61992187 11.4140625 15.80859375 C16.0569146 26.72730461 15.26400958 38.7110766 15.1953125 50.32421875 C15.19157561 52.19179634 15.18873184 54.05937591 15.18673706 55.92695618 C15.17915377 60.80786693 15.1595517 65.68865592 15.1373291 70.56951904 C15.11675553 75.5639074 15.10771088 80.55831572 15.09765625 85.55273438 C15.07630008 95.32688463 15.04116205 105.10091307 15 114.875 C4.77 114.875 -5.46 114.875 -16 114.875 C-16.0093457 112.69092529 -16.01869141 110.50685059 -16.02832031 108.2565918 C-16.06223379 101.0041355 -16.11786161 93.75195945 -16.18390274 86.4997282 C-16.22324994 82.10681957 -16.25550046 77.71410757 -16.27099609 73.32104492 C-16.28624742 69.07380824 -16.32084088 64.8271126 -16.36830902 60.58011818 C-16.38303609 58.96763653 -16.39103598 57.35507759 -16.39188385 55.74252892 C-16.40285122 45.33368676 -16.63220663 35.39221267 -23.375 26.875 C-30.23423944 21.64891281 -36.90768526 20.42444296 -45.4296875 21.0546875 C-52.1090436 22.18717348 -57.35630956 25.6339372 -61.625 30.8671875 C-68.22996251 40.51193389 -67.18610232 52.14609957 -67.31640625 63.3125 C-67.33701094 64.80322805 -67.35800825 66.29395071 -67.37937927 67.78466797 C-67.43423734 71.6840577 -67.48380453 75.58349694 -67.53222656 79.48297119 C-67.59160417 84.17464032 -67.65763003 88.86622014 -67.72252655 93.55781555 C-67.8200789 100.66348857 -67.90924686 107.76922225 -68 114.875 C-78.23 114.875 -88.46 114.875 -99 114.875 C-99 75.275 -99 35.675 -99 -5.125 C-89.43 -5.125 -79.86 -5.125 -70 -5.125 C-69.01 -1.495 -68.02 2.135 -67 5.875 C-65.1128125 4.0496875 -65.1128125 4.0496875 -63.1875 2.1875 C-46.87207846 -12.30367755 -17.61363161 -12.47632239 0 0 Z " fill="#E5E5E5" transform="translate(1828,226.125)"/>
<path d="M0 0 C10.23 0 20.46 0 31 0 C31 12.21 31 24.42 31 37 C38.59 37 46.18 37 54 37 C54 45.91 54 54.82 54 64 C46.41 64 38.82 64 31 64 C31 94.69 31 125.38 31 157 C20.77 157 10.54 157 0 157 C0 126.31 0 95.62 0 64 C-7.26 64 -14.52 64 -22 64 C-22 55.09 -22 46.18 -22 37 C-14.74 37 -7.48 37 0 37 C0 24.79 0 12.58 0 0 Z " fill="#E5E5E5" transform="translate(1881,184)"/>
<path d="M0 0 C10.23 0 20.46 0 31 0 C31 59.4 31 118.8 31 180 C20.77 180 10.54 180 0 180 C0 120.6 0 61.2 0 0 Z " fill="#E5E5E5" transform="translate(1476,161)"/>
<path d="M0 0 C0.83660156 0.00515625 1.67320312 0.0103125 2.53515625 0.015625 C6.38582752 0.06475637 9.46955233 0.30488808 13.25 1.25 C13.25 11.15 13.25 21.05 13.25 31.25 C4.25 31.625 4.25 31.625 1.46484375 31.72802734 C-7.31283063 32.14395059 -14.70252593 33.73730917 -21.75 39.25 C-23.12705764 40.88072616 -24.47722111 42.5366438 -25.75 44.25 C-26.41 44.25 -27.07 44.25 -27.75 44.25 C-27.935625 45.5803125 -27.935625 45.5803125 -28.125 46.9375 C-28.75 50.25 -28.75 50.25 -29.76913452 52.53715515 C-30.9520013 55.80868842 -31.02955255 58.49040098 -31.06884766 61.96801758 C-31.07889328 62.62223694 -31.0889389 63.2764563 -31.09928894 63.95050049 C-31.1300145 66.09850235 -31.14712596 68.24638019 -31.1640625 70.39453125 C-31.18278275 71.8895524 -31.20235681 73.38456308 -31.2227478 74.87956238 C-31.27398463 78.80363786 -31.31365535 82.72774756 -31.35089111 86.65197754 C-31.39803998 91.36614789 -31.45960146 96.08014954 -31.51873779 100.79418182 C-31.60684708 107.94605281 -31.67668463 115.09789314 -31.75 122.25 C-41.98 122.25 -52.21 122.25 -62.75 122.25 C-62.75 82.65 -62.75 43.05 -62.75 2.25 C-53.18 2.25 -43.61 2.25 -33.75 2.25 C-32.76 6.21 -31.77 10.17 -30.75 14.25 C-29.904375 13.1775 -29.05875 12.105 -28.1875 11 C-20.91758308 2.55531899 -10.8330467 -0.27210164 0 0 Z " fill="#E5E5E5" transform="translate(809.75,218.75)"/>
<path d="M0 0 C10.23 0 20.46 0 31 0 C31 39.6 31 79.2 31 120 C20.77 120 10.54 120 0 120 C0 80.4 0 40.8 0 0 Z " fill="#E5E5E5" transform="translate(1536,221)"/>
<path d="M0 0 C9.9 0 19.8 0 30 0 C30 39.6 30 79.2 30 120 C20.1 120 10.2 120 0 120 C0 80.4 0 40.8 0 0 Z " fill="#E5E5E5" transform="translate(688,221)"/>
<path d="M0 0 C4.53692729 3.04562249 6.49588281 5.77053516 7.6875 11.1328125 C8.24876733 17.17874475 8.18378477 21.94866611 4.6875 27.1328125 C0.9536356 31.45623444 -2.22568911 33.78224548 -7.9609375 34.43359375 C-13.88825282 34.45906932 -18.06265509 33.93272979 -23.3125 31.1328125 C-23.3125 30.4728125 -23.3125 29.8128125 -23.3125 29.1328125 C-23.910625 28.9678125 -24.50875 28.8028125 -25.125 28.6328125 C-28.55626133 26.27994759 -29.3171049 23.06426507 -30.3125 19.1328125 C-31.07275364 13.05078336 -29.33827891 9.22769022 -26.3125 4.1328125 C-25.879375 3.3696875 -25.44625 2.6065625 -25 1.8203125 C-18.25724539 -4.92244211 -7.80806513 -4.5022311 0 0 Z " fill="#E5E5E5" transform="translate(1562.3125,164.8671875)"/>
<path d="M0 0 C4.44884276 1.91147997 7.49073973 4.59092476 9.82421875 8.84375 C11.88738226 14.96729467 12.18700104 21.99264314 9.53515625 27.95703125 C6.64818936 32.07800509 3.56464864 34.93541661 -1.3203125 36.3828125 C-7.78211765 37.00585156 -13.90262569 37.38158134 -19.3203125 33.3828125 C-25.43721694 27.13576116 -26.67927246 23.40021021 -26.6015625 14.58984375 C-26.12433037 9.14807186 -23.73612572 6.6570444 -19.8203125 3.1328125 C-13.5806707 -1.23493676 -7.43966093 -1.97889971 0 0 Z " fill="#E5E5E5" transform="translate(710.3203125,162.6171875)"/>
</svg>
